# xmcd CD database file
#
# Track frame offsets:
#	150
#	19228
#	34394
#	62074
#	85518
#	101305
#	124770
#	141326
#	158605
#	174974
#	194494
#
# Disc length: 2812 seconds
#
# Revision: 20
# Processed by: cddbd v1.5.2PL0 Copyright (c) Steve Scherf et al.
# Submitted via: CDex 1.70beta3
#
DISCID=8a0afa0b
DTITLE=KISS - Symphony Alive IV (Disc1)
DYEAR=2003
DGENRE=Rock
TTITLE0=Deuce
TTITLE1=Strutter
TTITLE2=Let Me Go Rock and Roll
TTITLE3=Lick It Up
TTITLE4=Calling Dr. Love
TTITLE5=Psycho Circus
TTITLE6=Beth
TTITLE7=Forever
TTITLE8=Goin' Blind
TTITLE9=Sure Know Something
TTITLE10=Shandi
EXTD=YEAR: 2003
EXTT0=
EXTT1=
EXTT2=
EXTT3=
EXTT4=
EXTT5=
EXTT6=
EXTT7=
EXTT8=
EXTT9=
EXTT10=
PLAYORDER=
